# AST/ASF file generated using VICON BodyLanguage
# -----------------------------------------------
:version 1.10
:name VICON
:units
  mass 1.0
  length 0.45
  angle deg
:documentation
   .ast/.asf automatically generated from VICON data using
   VICON BodyBuilder and BodyLanguage model FoxedUp or BRILLIANT.MOD
:root
   order TX TY TZ RX RY RZ
   axis XYZ
   position 0 0 0  
   orientation 0 0 0 
:bonedata
  begin
     id 1 
     name lhipjoint
     direction 0.64773 -0.699417 0.302095 
     length 2.48597 
     axis 0 0 0  XYZ
  end
  begin
     id 2 
     name lfemur
     direction 0.34202 -0.939693 0  
     length 6.71947  
     axis 0 0 20  XYZ
    dof rx ry rz
    limits (-160.0 20.0)
           (-70.0 70.0)
           (-60.0 70.0)
  end
  begin
     id 3 
     name ltibia
     direction 0.34202 -0.939693 0   
     length 8.08777   
     axis 0 0 20   XYZ
    dof rx
    limits (-10.0 170.0)
  end
  begin
     id 4 
     name lfoot
     direction 0.0808503 -0.222134 0.971658   
     length 2.08264   
     axis -90 7.62852e-016 20   XYZ
    dof rx rz
    limits (-45.0 90.0)
           (-70.0 20.0)
  end
  begin
     id 5 
     name ltoes
     direction 1.53502e-011 -4.22007e-011 1   
     length 1.04662   
     axis -90 7.62852e-016 20   XYZ
    dof rx
    limits (-90.0 20.0)
  end
  begin
     id 6 
     name rhipjoint
     direction -0.610924 -0.726792 0.313919   
     length 2.39233  
     axis 0 0 0  XYZ 
  end
  begin
     id 7 
     name rfemur
     direction -0.34202 -0.939693 0   
     length 6.96955   
     axis 0 0 -20   XYZ
    dof rx ry rz
    limits (-160.0 20.0)
           (-70.0 70.0)
           (-70.0 60.0)
  end
  begin
     id 8 
     name rtibia
     direction -0.34202 -0.939693 0   
     length 8.19584   
     axis 0 0 -20   XYZ
    dof rx
    limits (-10.0 170.0)
 end
 begin
     id 9 
     name rfoot
     direction -0.077777 -0.213691 0.9738   
     length 2.07539  
     axis -90 -7.62852e-016 -20   XYZ
    dof rx rz
    limits (-45.0 90.0)
           (-20.0 70.0)
  end
  begin
     id 10 
     name rtoes
     direction -1.53558e-011 -4.22006e-011 1   
     length 1.04381   
     axis -90 -7.62852e-016 -20   XYZ
    dof rx
    limits (-90.0 20.0)
  end
  begin
     id 11 
     name lowerback
     direction -0.00971646 0.996074 0.0879841   
     length 1.67643   
     axis 0 0 0   XYZ
    dof rx ry rz
    limits (-20.0 45.0)
           (-30.0 30.0)
           (-30.0 30.0)
  end
  begin
     id 12 
     name upperback
     direction 0.0127391 0.991676 0.128127   
     length 1.63741   
     axis 0 0 0   XYZ
    dof rx ry rz
    limits (-20.0 45.0)
           (-30.0 30.0)
           (-30.0 30.0)
  end
  begin
     id 13 
     name thorax
     direction 0.0167583 0.996049 0.0872067   
     length 1.65931   
     axis 0 0 0   XYZ
    dof rx ry rz
    limits (-20.0 45.0)
           (-30.0 30.0)
           (-30.0 30.0)
  end
  begin
     id 14 
     name lowerneck
     direction -0.0317829 0.998312 0.0486079   
     length 1.79021   
     axis 0 0 0   XYZ
    dof rx ry rz
    limits (-20.0 45.0)
           (-30.0 30.0)
           (-30.0 30.0)
  end
  begin
     id 15 
     name upperneck
     direction 0.0896851 0.972452 -0.215159   
     length 1.78797   
     axis 0 0 0   XYZ
    dof rx ry rz
    limits (-20.0 45.0)
           (-30.0 30.0)
           (-30.0 30.0)
  end
  begin
     id 16
     name head
     direction 0.0310949 0.996503 -0.0775582  
     length 1.81549  
     axis 0 0 0   XYZ
    dof rx ry rz
    limits (-20.0 45.0)
           (-30.0 30.0)
           (-30.0 30.0)
  end
  begin
     id 17 
     name lclavicle
     direction 0.853638 0.502051 -0.138733  
     length 3.31627  
     axis 0 0 0   XYZ
    dof ry rz
    limits (-20.0 10.0)
           (0.0 20.0)
  end
  begin
     id 18 
     name lhumerus
     direction 1 -4.48962e-011 -1.41788e-018   
     length 5.54893   
     axis 180 -30 -90   XYZ
    dof rx ry rz
    limits (-60.0 90.0)
           (-90.0 90.0)
           (-90.0 90.0)
  end
  begin
     id 19
     name lradius
     direction 1 -4.48962e-011 -4.95754e-027   
     length 3.02898   
     axis 180 -30 -90   XYZ
    dof rx
    limits (-10.0 170.0)
  end
  begin
     id 20
     name lwrist
     direction 1 -4.48952e-011 -1.03764e-026   
     length 1.51449   
     axis 9.09556e-015 90 90   XYZ
    dof ry
    limits (-180.0 0.0)
 end
  begin
     id 21 
     name lhand
     direction 1 -4.4902e-011 -2.07528e-026   
     length 0.640951   
     axis 1.3242e-014 90 90   XYZ
    dof rx rz
    limits (-90.0 90.0)
           (-45.0 45.0)
  end
  begin
     id 22 
     name lfingers
     direction 1 -4.49014e-011 -4.15056e-026   
     length 0.516751   
     axis 2.64841e-014 90 90   XYZ
    dof rx
    limits (0.0 90.0)
  end
  begin
     id 23
     name lthumb
     direction 0.707107 -6.35008e-011 0.707107   
     length 0.741954   
     axis -90 45 2.85299e-015   XYZ
    dof rx rz
    limits (-45.0 45.0)
           (-45.0 45.0)
  end
  begin
     id 24 
     name rclavicle
     direction -0.888531 0.455324 -0.0565039   
     length 3.20126  
     axis 0 0 0   XYZ 
    dof ry rz
    limits (-10.0 20.0)
           (-20.0 0.0)
  end
  begin
     id 25 
     name rhumerus
     direction -1 -4.48946e-011 -8.98298e-028  
     length 5.3519   
     axis 180 30 90   XYZ
    dof rx ry rz
    limits (-90.0 60.0)
           (-90.0 90.0)
           (-90.0 90.0)
  end
  begin
     id 26 
     name rradius
     direction -1 -4.4899e-011 -3.18779e-027   
     length 3.02531   
     axis 180 30 90   XYZ
    dof rx
    limits (-10.0 170.0)
  end
  begin
     id 27 
     name rwrist
     direction -1 -4.4897e-011 -1.03764e-026   
     length 1.51266   
     axis 9.09556e-015 -90 -90   XYZ
    dof ry
    limits (-180.0 0.0)
  end
  begin
     id 28
     name rhand
     direction -1 -4.48941e-011 -2.07528e-026   
     length 0.78389   
     axis 1.3242e-014 -90 -90   XYZ
    dof rx rz
    limits (-90.0 90.0)
           (-45.0 45.0)
  end
  begin
     id 29
     name rfingers
     direction -1 -4.49012e-011 -4.15056e-026   
     length 0.631992   
     axis 2.64841e-014 -90 -90   XYZ
    dof rx
    limits (0.0 90.0)
  end
  begin
     id 30
     name rthumb
     direction -0.707107 -6.3496e-011 0.707107   
     length 0.907418   
     axis -90 -45 -2.85299e-015   XYZ
    dof rx rz
    limits (-45.0 45.0)
           (-45.0 45.0)
  end
:hierarchy
  begin
    root lhipjoint rhipjoint lowerback
    lhipjoint lfemur
    lfemur ltibia
    ltibia lfoot
    lfoot ltoes
    rhipjoint rfemur
    rfemur rtibia
    rtibia rfoot
    rfoot rtoes
    lowerback upperback
    upperback thorax
    thorax lowerneck lclavicle rclavicle
    lowerneck upperneck
    upperneck head
    lclavicle lhumerus
    lhumerus lradius
    lradius lwrist
    lwrist lhand lthumb
    lhand lfingers
    rclavicle rhumerus
    rhumerus rradius
    rradius rwrist
    rwrist rhand rthumb
    rhand rfingers
  end

#!OML:ASF E:\Style3\Style3.ASF
:FULLY-SPECIFIED
:DEGREES
554
root 0.159114 17.7845 0.721217 -43.9426 88.5904 302.784
lowerback -13.2145 -1.17063 -1.14918
upperback -11.6254 -0.686112 0.751184
thorax -4.86425 0.0825658 1.34575
lowerneck -13.0079 -3.42108 -5.68368
upperneck 26.0599 -5.40485 8.78967
head 10.9434 -1.77848 3.48395
rclavicle -5.46658e-016 1.98785e-015
rhumerus 2.51832 6.60329 -59.7594
rradius 63.3213
rwrist -41.9735
rhand -19.3499 20.0399
rfingers 7.12502
rthumb 6.96738 -9.82548
lclavicle -5.46658e-016 1.98785e-015
lhumerus 7.06483 18.2387 60.4072
lradius 50.7562
lwrist 46.2712
lhand -12.0505 23.8105
lfingers 7.12502
lthumb 14.0083 53.3185
rfemur -12.9921 10.6945 18.692
rtibia 16.0007
rfoot -14.871 -18.5307
rtoes -17.4796
lfemur -3.99294 -22.1333 -13.2012
ltibia 1.59028e-015
lfoot -11.8999 24.7161
ltoes -9.52748
555
root 0.159946 17.7836 0.720039 -41.736 88.5554 304.987
lowerback -13.2084 -1.1479 -1.18964
upperback -11.527 -0.662889 0.766042
thorax -4.75953 0.0916304 1.38623
lowerneck -13.006 -3.40332 -5.70989
upperneck 25.7842 -5.39027 8.88587
head 10.8424 -1.77239 3.51717
rclavicle -1.54058e-015 -3.8763e-015
rhumerus 2.24952 8.15483 -58.7774
rradius 64.9503
rwrist -43.1151
rhand -18.7627 19.235
rfingers 7.12502
rthumb 7.53416 -10.6108
lclavicle -1.54058e-015 -3.8763e-015
lhumerus 7.39518 17.1902 59.7566
lradius 51.0108
lwrist 43.6889
lhand -12.7273 24.3768
lfingers 7.12502
lthumb 13.3561 53.9287
rfemur -13.0233 10.6967 18.6742
rtibia 16.0353
rfoot -14.8505 -18.4968
rtoes -17.2825
lfemur -3.9752 -22.0706 -13.2247
ltibia 1.59028e-015
lfoot -12.2262 24.6604
ltoes -8.42444
556
root 0.16102 17.7839 0.719762 -40.1269 88.502 306.575
lowerback -13.2331 -1.17682 -1.26901
upperback -11.4102 -0.703578 0.869118
thorax -4.6151 0.073597 1.53531
lowerneck -13.1301 -3.36536 -5.78074
upperneck 25.5712 -5.31645 8.90306
head 10.7836 -1.7502 3.53786
rclavicle -6.75868e-015 2.98177e-016
rhumerus 2.03334 10.0165 -57.6341
rradius 66.7218
rwrist -44.4159
rhand -18.2625 18.6652
rfingers 7.12502
rthumb 8.01699 -11.1628
lclavicle -6.75868e-015 2.98177e-016
lhumerus 7.65502 16.2736 59.0513
lradius 51.2063
lwrist 40.4548
lhand -13.0253 24.4681
lfingers 7.12502
lthumb 13.0688 54.0387
rfemur -13.0507 10.7042 18.6796
rtibia 16.0435
rfoot -14.7831 -18.4255
rtoes -17.5128
lfemur -3.97007 -22.0014 -13.219
ltibia -4.77083e-015
lfoot -12.6101 24.6155
ltoes -7.05091
557
root 0.16114 17.7847 0.718626 -40.0848 88.4781 306.589
lowerback -13.1925 -1.19439 -1.27526
upperback -11.3252 -0.735533 0.920563
thorax -4.54206 0.0546143 1.59025
lowerneck -13.1918 -3.31965 -5.73064
upperneck 25.3305 -5.23682 8.83034
head 10.6958 -1.72561 3.50485
rclavicle 5.44173e-015 3.52843e-015
rhumerus 1.71331 11.9069 -56.4454
rradius 68.6976
rwrist -46.1181
rhand -17.7362 17.9742
rfingers 7.12502
rthumb 8.52491 -11.8337
lclavicle 5.44173e-015 3.52843e-015
lhumerus 7.91319 15.109 58.1142
lradius 51.3833
lwrist 37.2011
lhand -12.9489 24.6991
lfingers 7.12502
lthumb 13.1424 54.2649
rfemur -13.0703 10.6569 18.6862
rtibia 16.0189
rfoot -14.724 -18.362
rtoes -17.5982
lfemur -3.98724 -21.9801 -13.1993
ltibia 1.59028e-015
lfoot -12.3326 24.6481
ltoes -8.10221
558
root 0.160431 17.7854 0.718787 -40.1838 88.4131 306.476
lowerback -13.1093 -1.18378 -1.22614
upperback -11.2559 -0.735651 0.939663
thorax -4.51111 0.047504 1.58332
lowerneck -13.1304 -3.25869 -5.61135
upperneck 24.9824 -5.15341 8.77123
head 10.5428 -1.69563 3.46322
rclavicle 5.25537e-015 -3.926e-015
rhumerus 1.31912 13.7724 -55.2666
rradius 70.8088
rwrist -47.6781
rhand -17.325 17.2665
rfingers 7.12502
rthumb 8.92178 -12.5249
lclavicle 5.25537e-015 -3.926e-015
lhumerus 8.24515 13.5274 56.9192
lradius 51.5084
lwrist 34.0232
lhand -12.938 25.0937
lfingers 7.12502
lthumb 13.153 54.6588
rfemur -13.0808 10.6641 18.7324
rtibia 15.9895
rfoot -14.6804 -18.3038
rtoes -17.7255
lfemur -3.98766 -21.9299 -13.1448
ltibia -2.06736e-014
lfoot -12.087 24.648
ltoes -9.0481
559
root 0.159392 17.7861 0.71928 -40.0951 88.3201 306.52
lowerback -13.0476 -1.17194 -1.17539
upperback -11.2041 -0.731114 0.986062
thorax -4.48782 0.0449314 1.60438
lowerneck -13.0975 -3.21376 -5.57152
upperneck 24.6914 -5.07981 8.72828
head 10.421 -1.67377 3.44176
rclavicle -1.36664e-016 -4.96962e-015
rhumerus 0.984056 15.4677 -54.1524
rradius 72.7625
rwrist -48.4157
rhand -16.8001 16.8758
rfingers 7.12502
rthumb 9.42822 -12.8933
lclavicle -1.36664e-016 -4.96962e-015
lhumerus 8.56836 11.7552 55.5978
lradius 51.5732
lwrist 30.5373
lhand -12.8326 25.0577
lfingers 7.12502
lthumb 13.2546 54.6162
rfemur -13.127 10.6894 18.7927
rtibia 15.9696
rfoot -14.6907 -18.2316
rtoes -17.7439
lfemur -4.02956 -21.8516 -13.0585
ltibia -4.77083e-015
lfoot -12.37 24.6246
ltoes -8.15799
560
root 0.159228 17.7855 0.71945 -38.293 88.338 308.299
lowerback -12.981 -1.18216 -1.24056
upperback -11.1297 -0.748505 1.01109
thorax -4.44067 0.0364656 1.66608
lowerneck -13.121 -3.18435 -5.60013
upperneck 24.4066 -5.02411 8.73412
head 10.3179 -1.65981 3.44748
rclavicle -2.56556e-015 -4.02539e-015
rhumerus 0.735348 17.0625 -53.0023
rradius 74.5834
rwrist -48.5983
rhand -16.1251 16.8249
rfingers 7.12502
rthumb 10.0794 -12.9137
lclavicle -2.56556e-015 -4.02539e-015
lhumerus 8.93542 10.3388 54.4317
lradius 51.694
lwrist 26.2748
lhand -12.0611 25.131
lfingers 7.12502
lthumb 13.9981 54.6397
rfemur -13.1586 10.6928 18.7286
rtibia 15.9717
rfoot -14.6974 -18.2112
rtoes -17.8168
lfemur -4.05534 -21.8302 -13.1032
ltibia -6.36111e-015
lfoot -12.6926 24.5998
ltoes -7.11936
561
root 0.159175 17.7855 0.718292 -36.6925 88.3696 309.837
lowerback -12.9174 -1.21388 -1.32274
upperback -11.0901 -0.789155 1.04601
thorax -4.42858 0.0197734 1.74568
lowerneck -13.0846 -3.1433 -5.56606
upperneck 24.12 -4.94847 8.66384
head 10.1974 -1.64048 3.41784
rclavicle -1.37783e-014 6.53505e-015
rhumerus 0.482972 18.6881 -51.8396
rradius 76.4892
rwrist -48.7198
rhand -15.303 16.7215
rfingers 7.12502
rthumb 10.8725 -12.977
lclavicle -1.37783e-014 6.53505e-015
lhumerus 9.30564 9.32984 53.4027
lradius 51.8829
lwrist 21.7866
lhand -10.9104 25.2404
lfingers 7.12502
lthumb 15.1068 54.6691
rfemur -13.2367 10.6309 18.6526
rtibia 15.9966
rfoot -14.6767 -18.1312
rtoes -17.8316
lfemur -4.12053 -21.8221 -13.1423
ltibia 2.38542e-014
lfoot -12.6649 24.5954
ltoes -7.11089
562
root 0.160074 17.785 0.718406 -36.521 88.3705 309.953
lowerback -12.8446 -1.23934 -1.34592
upperback -11.0578 -0.825827 1.09136
thorax -4.43012 0.00222974 1.8036
lowerneck -12.935 -3.09288 -5.50183
upperneck 23.716 -4.85596 8.55766
head 10.0105 -1.61984 3.37003
rclavicle -8.10746e-015 1.05449e-015
rhumerus 0.128692 20.1895 -50.7804
rradius 78.5281
rwrist -48.7794
rhand -14.236 16.3897
rfingers 7.12502
rthumb 11.9015 -13.2521
lclavicle -8.10746e-015 1.05449e-015
lhumerus 9.72456 8.34794 52.3434
lradius 52.0322
lwrist 17.6224
lhand -9.63673 24.99
lfingers 7.12502
lthumb 16.3334 54.3221
rfemur -13.3178 10.636 18.6388
rtibia 16.0482
rfoot -14.6549 -18.1592
rtoes -18.3
lfemur -4.1857 -21.8141 -13.121
ltibia 1.27222e-014
lfoot -12.6252 24.5817
ltoes -7.45132
563
root 0.16027 17.7848 0.719175 -35.086 88.3782 311.34
lowerback -12.753 -1.25004 -1.39236
upperback -11.0169 -0.842691 1.12903
thorax -4.43298 -0.00480433 1.86842
lowerneck -12.8438 -3.03751 -5.49057
upperneck 23.3414 -4.74686 8.4597
head 9.84704 -1.5934 3.33731
rclavicle -1.36261e-014 2.33572e-015
rhumerus -0.257184 21.5543 -49.764
rradius 80.5327
rwrist -48.6144
rhand -13.1483 16.3039
rfingers 7.12502
rthumb 12.9502 -13.2742
lclavicle -1.36261e-014 2.33572e-015
lhumerus 10.1864 7.11087 51.1328
lradius 52.0897
lwrist 14.0644
lhand -8.41453 24.4799
lfingers 7.12502
lthumb 17.5099 53.7113
rfemur -13.4089 10.6793 18.5878
rtibia 16.1062
rfoot -14.7027 -18.1249
rtoes -18.3691
lfemur -4.23876 -21.7916 -13.1379
ltibia 6.36111e-015
lfoot -12.4269 24.5934
ltoes -7.71944
564
root 0.16024 17.7843 0.719173 -32.2576 88.3987 314.109
lowerback -12.6595 -1.27828 -1.48287
upperback -10.9909 -0.87864 1.14434
thorax -4.45198 -0.0188554 1.93298
lowerneck -12.7295 -2.96048 -5.46706
upperneck 22.9448 -4.63477 8.46734
head 9.67472 -1.55257 3.34046
rclavicle -5.59703e-015 1.56543e-015
rhumerus -0.610028 22.9261 -48.7656
rradius 82.4742
rwrist -48.483
rhand -12.2177 16.0358
rfingers 7.12502
rthumb 13.8472 -13.4832
lclavicle -5.59703e-015 1.56543e-015
lhumerus 10.6147 5.66331 49.6798
lradius 52.1787
lwrist 11.1038
lhand -7.46387 24.005
lfingers 7.12502
lthumb 18.4246 53.1524
rfemur -13.4938 10.7063 18.4821
rtibia 16.117
rfoot -14.7306 -18.0747
rtoes -18.2316
lfemur -4.30522 -21.7589 -13.1935
ltibia 2.8625e-014
lfoot -12.1314 24.5754
ltoes -8.19867
565
root 0.160309 17.7854 0.718559 -29.3588 88.429 316.964
lowerback -12.5878 -1.32509 -1.60276
upperback -10.9522 -0.936678 1.18853
thorax -4.44363 -0.0417656 2.04225
lowerneck -12.6248 -2.87591 -5.43443
upperneck 22.5656 -4.50273 8.42374
head 9.50846 -1.50669 3.32669
rclavicle -2.03754e-015 2.83268e-015
rhumerus -0.860862 24.303 -47.6958
rradius 84.4094
rwrist -48.7127
rhand -11.1238 15.5568
rfingers 7.12502
rthumb 14.9012 -13.8872
lclavicle -2.03754e-015 2.83268e-015
lhumerus 11.0461 4.36743 48.2635
lradius 52.2811
lwrist 8.43974
lhand -6.21743 23.4739
lfingers 7.12502
lthumb 19.6233 52.5035
rfemur -13.5319 10.7093 18.3731
rtibia 16.0861
rfoot -14.7519 -18.0449
rtoes -18.0381
lfemur -4.34756 -21.7412 -13.2751
ltibia 1.74931e-014
lfoot -11.9421 24.6263
ltoes -9.25437
